<?xml version="1.0" encoding="UTF-8"?>
<!DOCTYPE svg PUBLIC "-//W3C//DTD SVG 1.1//EN" "http://www.w3.org/Graphics/SVG/1.1/DTD/svg11.dtd">
<svg version="1.1" xmlns="http://www.w3.org/2000/svg" xmlns:xlink="http://www.w3.org/1999/xlink" x="0" y="0" width="158.184" height="93.292" viewBox="0, 0, 158.184, 93.292">
<g>
  <path d="M13.568,6.112 Q12.96,5.344 11.92,4.976 Q10.88,4.608 9.952,4.608 Q9.408,4.608 8.832,4.736 Q8.256,4.864 7.744,5.136 Q7.232,5.408 6.912,5.856 Q6.592,6.304 6.592,6.944 Q6.592,7.968 7.36,8.512 Q8.128,9.056 9.296,9.44 Q10.464,9.824 11.808,10.208 Q13.152,10.592 14.32,11.296 Q15.488,12 16.256,13.184 Q17.024,14.368 17.024,16.352 Q17.024,18.24 16.32,19.648 Q15.616,21.056 14.416,21.984 Q13.216,22.912 11.632,23.36 Q10.048,23.808 8.288,23.808 Q6.08,23.808 4.192,23.136 Q2.304,22.464 0.672,20.96 L4.224,17.056 Q4.992,18.08 6.16,18.64 Q7.328,19.2 8.576,19.2 Q9.184,19.2 9.808,19.056 Q10.432,18.912 10.928,18.624 Q11.424,18.336 11.728,17.888 Q12.032,17.44 12.032,16.832 Q12.032,15.808 11.248,15.216 Q10.464,14.624 9.28,14.208 Q8.096,13.792 6.72,13.376 Q5.344,12.96 4.16,12.256 Q2.976,11.552 2.192,10.4 Q1.408,9.248 1.408,7.36 Q1.408,5.536 2.128,4.16 Q2.848,2.784 4.048,1.856 Q5.248,0.928 6.816,0.464 Q8.384,-0 10.048,-0 Q11.968,-0 13.76,0.544 Q15.552,1.088 16.992,2.368 z" fill="#212121"/>
  <path d="M26.62,4.992 L20.156,4.992 L20.156,0.576 L38.076,0.576 L38.076,4.992 L31.612,4.992 L31.612,23.232 L26.62,23.232 z" fill="#212121"/>
  <path d="M61.208,14.496 Q61.208,16.512 60.6,18.208 Q59.992,19.904 58.792,21.152 Q57.592,22.4 55.8,23.104 Q54.008,23.808 51.672,23.808 Q49.304,23.808 47.512,23.104 Q45.72,22.4 44.52,21.152 Q43.32,19.904 42.712,18.208 Q42.104,16.512 42.104,14.496 L42.104,0.576 L47.096,0.576 L47.096,14.304 Q47.096,15.36 47.432,16.256 Q47.768,17.152 48.376,17.808 Q48.984,18.464 49.832,18.832 Q50.68,19.2 51.672,19.2 Q52.664,19.2 53.496,18.832 Q54.328,18.464 54.936,17.808 Q55.544,17.152 55.88,16.256 Q56.216,15.36 56.216,14.304 L56.216,0.576 L61.208,0.576 z" fill="#212121"/>
  <path d="M67.316,0.576 L74.804,0.576 Q77.524,0.576 79.972,1.184 Q82.42,1.792 84.244,3.152 Q86.068,4.512 87.14,6.688 Q88.212,8.864 88.212,11.968 Q88.212,14.72 87.172,16.816 Q86.132,18.912 84.372,20.336 Q82.612,21.76 80.308,22.496 Q78.004,23.232 75.476,23.232 L67.316,23.232 z M72.308,18.624 L74.9,18.624 Q76.628,18.624 78.116,18.272 Q79.604,17.92 80.692,17.104 Q81.78,16.288 82.404,14.96 Q83.028,13.632 83.028,11.712 Q83.028,10.048 82.404,8.816 Q81.78,7.584 80.724,6.784 Q79.668,5.984 78.244,5.584 Q76.82,5.184 75.252,5.184 L72.308,5.184 z" fill="#212121"/>
  <path d="M93.296,0.576 L108.688,0.576 L108.688,5.184 L98.288,5.184 L98.288,9.408 L108.112,9.408 L108.112,14.016 L98.288,14.016 L98.288,18.624 L109.264,18.624 L109.264,23.232 L93.296,23.232 z" fill="#212121"/>
  <path d="M114.764,0.576 L121.548,0.576 L131.18,16.32 L131.244,16.32 L131.244,0.576 L136.236,0.576 L136.236,23.232 L129.708,23.232 L119.82,7.104 L119.756,7.104 L119.756,23.232 L114.764,23.232 z" fill="#212121"/>
  <path d="M146.728,4.992 L140.264,4.992 L140.264,0.576 L158.184,0.576 L158.184,4.992 L151.72,4.992 L151.72,23.232 L146.728,23.232 z" fill="#212121"/>
  <path d="M-0,35.776 L5.44,35.776 L9.056,50.304 L9.12,50.304 L13.856,35.776 L18.496,35.776 L23.2,50.688 L23.264,50.688 L27.072,35.776 L32.128,35.776 L25.504,58.432 L21.056,58.432 L16.064,42.752 L16,42.752 L11.008,58.432 L6.72,58.432 z" fill="#212121"/>
  <path d="M36.06,35.776 L51.452,35.776 L51.452,40.384 L41.052,40.384 L41.052,44.608 L50.876,44.608 L50.876,49.216 L41.052,49.216 L41.052,53.824 L52.028,53.824 L52.028,58.432 L36.06,58.432 z" fill="#212121"/>
  <path d="M57.72,35.776 L73.112,35.776 L73.112,40.384 L62.712,40.384 L62.712,44.608 L72.536,44.608 L72.536,49.216 L62.712,49.216 L62.712,53.824 L73.688,53.824 L73.688,58.432 L57.72,58.432 z" fill="#212121"/>
  <path d="M79.38,35.776 L84.372,35.776 L84.372,45.184 L93.172,35.776 L99.7,35.776 L89.62,46.304 L100.564,58.432 L93.588,58.432 L84.372,47.68 L84.372,58.432 L79.38,58.432 z" fill="#212121"/>
  <path d="M103.984,35.776 L108.976,35.776 L108.976,53.824 L118.224,53.824 L118.224,58.432 L103.984,58.432 z" fill="#212121"/>
  <path d="M124.492,48.768 L115.98,35.776 L122.188,35.776 L126.988,44.256 L132.076,35.776 L137.996,35.776 L129.484,48.768 L129.484,58.432 L124.492,58.432 z" fill="#212121"/>
  <path d="M9.37,88.364 L5.3,88.364 C3.914,88.364 3.54,88.342 2.902,88.298 L2.902,90.212 C3.65,90.146 4.178,90.124 5.256,90.124 L9.37,90.124 L9.37,90.74 L3.65,90.74 C2.572,90.74 1.802,90.718 0.988,90.63 L0.988,92.984 C1.89,92.896 2.77,92.874 4.024,92.874 L18.016,92.874 C19.292,92.874 20.26,92.918 21.14,92.984 L21.14,90.63 C20.37,90.718 19.622,90.74 18.522,90.74 L12.582,90.74 L12.582,90.124 L17.026,90.124 C18.038,90.124 18.522,90.146 19.27,90.212 L19.27,88.298 C18.632,88.342 18.038,88.364 17.092,88.364 L12.582,88.364 L12.582,87.616 C14.122,87.55 15.398,87.484 16.41,87.44 C16.718,87.77 16.828,87.902 17.158,88.342 L19.886,87.088 C19.028,86.208 18.698,85.9 17.906,85.306 C18.522,85.328 18.588,85.328 19.006,85.372 L19.006,84.69 L20.986,84.69 C20.92,84.382 20.898,84.074 20.898,83.546 L20.898,82.864 C20.898,82.38 20.92,82.006 20.964,81.632 C20.48,81.676 19.864,81.698 18.962,81.698 L3.078,81.698 C2.198,81.698 1.582,81.676 1.12,81.632 C1.164,81.984 1.186,82.424 1.186,82.82 L1.186,83.524 C1.186,84.03 1.164,84.36 1.098,84.69 L3.078,84.69 L3.078,85.372 C3.738,85.306 4.2,85.284 5.322,85.284 L6.444,85.284 C6.246,85.57 6.158,85.658 5.916,85.944 C3.804,85.922 3.012,85.9 2.44,85.856 L2.858,87.902 C3.232,87.858 3.43,87.836 3.87,87.836 C7.896,87.748 8.204,87.748 9.37,87.704 z M14.1,85.284 C14.54,85.636 14.54,85.636 14.804,85.878 C13,85.922 13,85.922 9.392,85.944 C9.656,85.658 9.722,85.57 9.942,85.284 z M4.31,83.238 L17.774,83.238 L17.774,83.744 C17.444,83.744 17.312,83.744 16.828,83.744 L5.322,83.744 C4.816,83.744 4.684,83.744 4.31,83.744 z M12.626,73.47 C12.626,73.03 12.648,72.81 12.714,72.48 L9.238,72.48 C9.282,72.766 9.326,73.052 9.326,73.47 L3.98,73.47 C2.968,73.47 2.242,73.426 1.56,73.36 L1.56,75.494 C2.242,75.428 2.792,75.406 3.892,75.406 L9.326,75.406 L9.326,75.956 L4.838,75.956 C3.782,75.956 3.298,75.934 2.66,75.868 L2.66,77.65 C3.32,77.584 3.848,77.562 4.838,77.562 L17.29,77.562 C18.236,77.562 18.786,77.584 19.424,77.65 L19.424,75.868 C18.786,75.934 18.302,75.956 17.29,75.956 L12.626,75.956 L12.626,75.406 L18.214,75.406 C19.358,75.406 19.996,75.428 20.59,75.516 L20.59,73.36 C19.93,73.426 19.182,73.47 18.214,73.47 z M18.654,79.102 C18.654,78.684 18.676,78.376 18.72,78.024 C18.148,78.046 17.62,78.068 16.674,78.068 L5.432,78.068 C4.486,78.068 3.958,78.046 3.386,78.024 C3.43,78.354 3.452,78.75 3.452,79.102 L3.452,80.158 C3.452,80.51 3.43,80.884 3.386,81.214 C4.046,81.192 4.596,81.17 5.432,81.17 L16.674,81.17 C17.532,81.17 18.038,81.192 18.72,81.214 C18.676,80.862 18.654,80.576 18.654,80.136 z M6.84,79.322 L15.244,79.322 L15.244,79.894 L6.84,79.894 z" fill="#212121"/>
  <path d="M40.796,80.95 C42.138,80.95 42.886,80.972 43.876,81.082 L43.876,77.386 C42.996,77.474 42.16,77.518 40.774,77.518 L35.758,77.518 C35.758,77.122 35.758,77.056 35.758,76.77 C35.802,73.91 35.802,73.91 35.934,73.052 L31.908,73.052 C32.018,73.712 32.062,74.262 32.062,75.406 C32.062,76.132 32.062,76.638 32.04,77.518 L27.31,77.518 C25.88,77.518 25.044,77.474 24.23,77.386 L24.23,81.082 C25.11,80.972 25.682,80.95 27.332,80.95 L31.754,80.95 C31.446,83.084 30.698,84.712 29.334,86.208 C27.86,87.858 26.166,88.958 23.548,89.97 C24.494,91.114 25.044,91.972 25.682,93.27 C26.804,92.764 27.31,92.5 27.97,92.104 C29.312,91.29 30.588,90.212 31.71,88.958 C32.788,87.748 33.58,86.494 34.218,84.976 C35.142,86.978 36.176,88.43 37.672,89.882 C39.102,91.246 40.51,92.236 42.578,93.27 C43.26,91.774 43.81,90.916 44.778,89.728 C42.336,88.76 40.598,87.66 39.08,86.142 C37.606,84.646 36.462,82.798 35.868,80.95 z" fill="#212121"/>
  <path d="M53.5,78.09 C53.28,78.112 53.016,78.134 52.378,78.134 L51.168,78.134 L51.146,77.584 L52.378,77.584 C52.994,77.584 53.236,77.584 53.5,77.628 L53.5,75.89 C53.302,75.934 53.016,75.956 52.378,75.956 L51.058,75.956 L51.036,75.494 C51.96,75.362 53.236,75.098 53.742,74.9 C53.896,74.856 53.896,74.856 54.006,74.834 L52.73,72.568 C51.806,73.096 50.002,73.536 48.066,73.69 C48.11,74.086 48.154,74.57 48.198,75.252 L48.418,80.356 C47.868,80.334 47.538,80.334 47.12,80.29 C47.186,80.84 47.208,81.324 47.208,82.094 L47.208,82.952 C47.208,83.722 47.186,84.162 47.12,84.756 L50.2,84.756 L50.2,82.666 L63.862,82.666 L63.862,84.756 L66.986,84.756 C66.92,84.184 66.898,83.788 66.898,82.974 L66.898,82.094 C66.898,81.302 66.92,80.84 66.986,80.29 C66.59,80.334 66.392,80.334 65.732,80.356 L66.04,74.68 C66.062,74.196 66.128,73.58 66.172,73.096 C65.798,73.162 65.336,73.184 64.676,73.184 L62.146,73.184 C61.354,73.184 60.892,73.162 60.562,73.096 L60.562,75.406 C60.958,75.384 61.332,75.362 61.794,75.362 L63.18,75.362 L63.136,75.934 L61.684,75.934 C61.002,75.934 60.782,75.934 60.562,75.89 L60.562,77.628 C60.804,77.584 61.09,77.562 61.684,77.562 L63.048,77.562 L63.026,78.134 L61.684,78.134 C61.024,78.134 60.76,78.112 60.562,78.09 L60.562,79.806 C60.782,79.784 61.046,79.762 61.684,79.762 L62.938,79.762 L62.894,80.356 L58.736,80.356 L60.276,79.014 C59.726,78.64 59.506,78.486 59.132,78.222 C59.506,77.98 59.726,77.848 60.342,77.386 L59.066,76.462 L60.254,75.406 C59.66,74.988 59.462,74.856 59.022,74.57 C59.396,74.262 59.638,74.064 60.298,73.492 L58.45,72.37 C57.9,72.964 57.702,73.14 57.218,73.492 C56.58,73.14 56.294,73.008 55.414,72.612 L53.94,73.844 C54.71,74.174 54.974,74.306 55.48,74.57 C54.798,74.922 54.468,75.054 53.456,75.406 C54.028,75.868 54.292,76.132 54.754,76.704 L53.874,77.408 C54.6,77.716 54.82,77.826 55.348,78.09 C54.776,78.332 54.512,78.398 53.5,78.662 z M57.262,77.122 C56.712,76.814 56.514,76.726 56.03,76.484 C56.536,76.22 56.734,76.11 57.328,75.736 C57.702,76 57.834,76.11 58.208,76.44 C57.812,76.77 57.658,76.88 57.262,77.122 z M54.908,80.356 C56.008,79.938 56.316,79.806 57.306,79.3 C57.768,79.652 57.944,79.784 58.582,80.356 z M51.278,80.356 L51.256,79.762 L52.378,79.762 C53.016,79.762 53.236,79.762 53.5,79.806 L53.5,78.838 C54.006,79.344 54.27,79.674 54.71,80.356 z M58.846,89.552 L63.884,89.552 C65.402,89.552 66.216,89.596 67.052,89.684 L67.052,86.846 C66.26,86.934 65.468,86.978 63.906,86.978 L59.55,86.978 C60.386,86.516 61.332,85.922 61.772,85.57 C62.41,85.042 62.542,84.932 62.894,84.734 L61.64,83.194 C61.2,83.282 60.694,83.304 59.99,83.304 L53.126,83.304 C52.092,83.304 51.762,83.282 51.124,83.216 L51.124,85.702 C51.762,85.636 52.312,85.614 53.478,85.614 L57.878,85.614 C57.262,85.988 57.24,86.01 56.602,86.274 L55.568,86.274 C55.59,86.56 55.612,86.758 55.612,86.978 L50.156,86.978 C48.616,86.978 47.802,86.934 47.032,86.846 L47.032,89.684 C47.846,89.596 48.66,89.552 50.178,89.552 L55.612,89.552 L55.612,90.146 C55.612,90.586 55.458,90.652 54.534,90.652 C53.94,90.652 53.236,90.608 52.312,90.498 C52.708,91.488 52.862,92.17 52.994,93.27 C54.248,93.292 54.248,93.292 54.446,93.292 C56.184,93.292 57.284,93.138 57.878,92.786 C58.516,92.412 58.846,91.664 58.846,90.63 z" fill="#212121"/>
  <path d="M78.568,79.718 L78.568,83.018 L75.774,83.018 C74.432,83.018 73.684,82.996 72.826,82.908 L72.826,86.208 C73.772,86.12 74.674,86.076 75.84,86.076 L78.568,86.076 L78.568,89.662 L73.75,89.662 C72.474,89.662 71.374,89.618 70.252,89.508 L70.252,92.918 C71.528,92.808 72.628,92.764 73.882,92.764 L86.708,92.764 C87.918,92.764 88.842,92.808 90.096,92.918 L90.096,89.508 C89.062,89.618 87.984,89.662 86.598,89.662 L82.066,89.662 L82.066,86.076 L85.322,86.076 C86.488,86.076 87.39,86.12 88.38,86.208 L88.38,82.886 C87.522,82.974 86.532,83.018 85.3,83.018 L82.066,83.018 L82.066,79.718 L86.004,79.718 C87.192,79.718 88.226,79.762 89.326,79.85 L89.326,76.528 C88.27,76.616 87.192,76.66 85.894,76.66 L82.066,76.66 L82.066,75.648 C82.066,74.218 82.088,73.47 82.198,72.7 L78.436,72.7 C78.524,73.448 78.568,74.306 78.568,75.648 L78.568,76.66 L75.928,76.66 C76.082,76.176 76.192,75.846 76.302,75.406 C76.478,74.812 76.478,74.812 76.742,74.064 L73.31,73.25 C73.134,75.956 71.484,79.432 69.46,81.412 C70.494,82.468 70.824,82.864 71.66,84.272 C72.87,82.908 73.772,81.522 74.674,79.718 z" fill="#212121"/>
  <path d="M98.312,83.172 C98.312,81.632 98.334,81.214 98.378,80.686 C97.894,80.752 97.344,80.774 96.728,80.774 L94.616,80.774 C93.802,80.774 93.384,80.752 92.79,80.664 L92.79,83.986 C93.362,83.898 93.67,83.876 94.154,83.876 L95.056,83.876 L95.056,88.056 C94.198,88.782 93.032,89.508 92.394,89.728 L93.824,93.27 C94.858,92.588 95.958,91.752 96.75,91.026 C98.422,92.764 99.72,93.072 105.66,93.072 C108.058,93.072 111.27,93.028 113.052,92.94 C113.25,91.4 113.404,90.74 113.866,89.508 C110.896,89.838 108.102,89.97 103.614,89.97 C102.272,89.97 101.106,89.882 100.16,89.684 C99.786,89.596 99.434,89.464 99.082,89.222 C98.796,89.046 98.62,88.848 98.312,88.43 L98.312,87.484 C99.148,88.144 99.698,88.672 100.424,89.508 C101.634,87.242 102.162,85.24 102.36,82.226 L109.466,82.226 L109.466,86.208 C109.466,86.582 109.422,86.604 108.806,86.626 L108.806,84.206 C108.806,83.678 108.806,83.458 108.85,82.82 C108.388,82.842 108.058,82.864 107.618,82.864 L103.68,82.864 C103.262,82.864 103.086,82.864 102.492,82.82 C102.536,83.568 102.536,83.678 102.536,84.206 L102.536,86.56 C102.536,87.462 102.536,87.748 102.492,88.232 C103.152,88.21 103.482,88.188 103.9,88.188 L107.706,88.188 C107.772,88.606 107.794,88.782 107.838,89.354 C108.806,89.42 108.938,89.42 109.268,89.42 C110.676,89.42 111.402,89.266 111.93,88.826 C112.414,88.452 112.634,87.858 112.634,87 L112.634,75.626 C112.634,74.086 112.656,73.712 112.722,73.074 C112.084,73.14 111.776,73.162 110.258,73.162 L101.876,73.162 C100.38,73.162 100.072,73.162 99.324,73.074 C99.39,73.69 99.412,74.394 99.412,75.824 C99.412,82.226 99.214,84.096 98.312,86.098 z M104.45,79.916 L102.492,79.916 C102.514,79.41 102.514,79.41 102.514,79.102 L104.45,79.102 z M107.376,79.916 L107.376,79.102 L109.466,79.102 L109.466,79.916 z M104.428,76.858 L102.536,76.858 L102.536,76.044 L104.428,76.044 z M107.376,76.858 L107.376,76.044 L109.466,76.044 L109.466,76.858 z M105.022,85.02 L106.342,85.02 L106.342,85.966 L105.022,85.966 z M92.658,75.032 C94.44,76.55 95.32,77.474 96.728,79.278 L99.258,76.704 C97.96,75.12 96.97,74.13 95.166,72.656 z" fill="#212121"/>
  <path d="M134.974,80.136 C134.402,80.224 133.808,80.246 132.554,80.246 L129.188,80.246 L129.188,76.176 L132.664,76.176 C132.62,77.122 132.554,77.254 132.07,77.254 C131.586,77.254 131.014,77.21 130.09,77.078 C130.42,78.046 130.574,78.816 130.662,79.696 C131.586,79.762 132.092,79.784 132.554,79.784 C134.006,79.784 134.666,79.608 135.084,79.124 C135.546,78.596 135.678,77.936 135.832,75.318 C135.898,73.998 135.898,73.998 135.964,73.162 C135.59,73.228 134.798,73.272 133.742,73.272 L127.978,73.272 C127.164,73.272 126.57,73.25 125.954,73.184 C125.998,73.756 126.042,74.812 126.042,75.56 L126.042,90.256 C126.042,91.62 125.998,92.368 125.91,93.292 L129.342,93.292 C129.254,92.544 129.21,91.994 129.188,91.026 C129.672,91.73 129.958,92.236 130.398,93.226 C131.388,92.324 131.916,91.774 132.62,90.828 C133.588,91.906 134.028,92.324 135.128,93.204 C135.634,91.906 136.008,91.18 136.888,89.816 C135.656,89.09 135.15,88.738 134.336,87.946 C134.952,86.604 135.546,84.69 135.942,82.864 C136.052,82.292 136.118,82.094 136.206,81.786 z M129.188,84.36 C129.584,85.79 130.09,87 130.794,88.276 C130.288,88.936 129.782,89.464 129.188,89.948 z M133.016,83.062 C132.796,84.14 132.664,84.558 132.378,85.372 C131.96,84.558 131.696,83.898 131.454,83.062 z M122.412,78.178 L122.412,77.122 L123.204,77.122 C124.04,77.122 124.524,77.144 125.206,77.21 L125.206,74.13 C124.59,74.218 124.172,74.24 123.204,74.24 L122.412,74.24 L122.412,74.042 C122.412,73.36 122.434,73.008 122.544,72.59 L119.2,72.59 C119.266,72.942 119.31,73.426 119.31,74.042 L119.31,74.24 L118.43,74.24 C117.462,74.24 117.066,74.218 116.428,74.13 L116.428,77.21 C117.088,77.144 117.594,77.122 118.43,77.122 L119.31,77.122 L119.31,78.178 L118.012,78.178 C117.066,78.178 116.604,78.156 115.944,78.068 L115.944,81.148 C116.34,81.104 116.626,81.082 117.132,81.06 C117.352,81.698 117.462,82.16 117.594,82.864 C116.802,82.864 116.494,82.842 115.944,82.776 L115.944,85.856 C116.56,85.768 117.11,85.746 118.012,85.746 L119.31,85.746 L119.31,86.934 L118.386,86.934 C117.506,86.934 117,86.912 116.384,86.846 L116.384,89.926 C117.022,89.838 117.462,89.816 118.386,89.816 L119.31,89.816 L119.31,90.85 C119.31,91.994 119.288,92.522 119.178,93.292 L122.566,93.292 C122.456,92.588 122.434,91.972 122.434,90.85 L122.434,89.816 L123.358,89.816 C124.282,89.816 124.722,89.838 125.382,89.926 L125.382,86.846 C124.766,86.912 124.26,86.934 123.358,86.934 L122.434,86.934 L122.434,85.746 L123.512,85.746 C124.458,85.746 124.92,85.768 125.602,85.856 L125.602,82.776 C125.118,82.842 124.722,82.864 124.106,82.864 C124.304,82.248 124.348,82.116 124.612,81.082 C125.03,81.082 125.25,81.104 125.602,81.148 L125.602,78.068 C124.986,78.156 124.48,78.178 123.512,78.178 z M120.366,82.864 C120.256,82.182 120.146,81.742 119.97,81.06 L121.708,81.06 C121.554,81.786 121.444,82.248 121.268,82.864 z" fill="#212121"/>
</g>
</svg>
